<svg width="35.000000" height="12.000000" viewBox="0 0 35 12" fill="none" xmlns="http://www.w3.org/2000/svg" xmlns:xlink="http://www.w3.org/1999/xlink">
	<desc>
			Created with Pixso.
	</desc>
	<defs/>
	<path id="Back" d="M3.68 11L-0.46 11L-0.46 -0.64L3.47 -0.64C5.74 -0.64 6.88 0.66 6.88 2.41C6.88 3.86 6.07 4.67 5.03 4.94L5.03 5.03C6.17 5.12 7.33 6.18 7.33 7.94C7.33 9.71 6.18 11 3.68 11ZM28.51 11L27.5 11L27.5 -0.64L28.51 -0.64L28.51 6.37L28.63 6.37L32.72 2.27L34 2.27L30.27 6.01L34.23 11L32.93 11L29.51 6.67L28.51 7.62L28.51 11ZM0.6 0.31L0.6 4.62L3.56 4.62C4.94 4.62 5.87 3.68 5.87 2.41C5.87 1.17 5.06 0.31 3.47 0.31L0.6 0.31ZM14.83 9.62C14.47 10.39 13.58 11.19 12.13 11.19C10.54 11.19 9.26 10.24 9.26 8.56C9.26 6.83 10.64 6.28 12.61 6.03C14.08 5.85 14.89 5.84 14.89 5.18L14.89 4.98C14.89 3.78 14.16 3.06 12.84 3.06C11.58 3.06 10.79 3.7 10.47 4.45L9.51 4.1C10.1 2.68 11.47 2.15 12.81 2.15C14.14 2.15 15.9 2.73 15.9 5.07L15.9 11L14.89 11L14.89 9.62L14.83 9.62ZM25.33 8.45C25.1 10.03 23.82 11.18 22 11.18C19.65 11.18 18.14 9.27 18.14 6.67C18.14 4.05 19.7 2.15 21.98 2.15C23.73 2.15 25.08 3.24 25.32 4.86L24.3 4.86C24.08 3.87 23.24 3.07 22 3.07C20.32 3.07 19.16 4.52 19.16 6.64C19.16 8.76 20.29 10.25 22 10.25C23.16 10.25 24.07 9.56 24.31 8.45L25.33 8.45ZM0.6 5.56L0.6 10.04L3.68 10.04C5.48 10.04 6.32 9.15 6.32 7.94C6.32 6.62 5.29 5.56 3.73 5.56L0.6 5.56ZM10.27 8.6C10.27 9.66 11.12 10.27 12.26 10.27C13.88 10.27 14.89 9.08 14.89 7.65L14.89 6.39C14.6 6.68 13.33 6.83 12.61 6.92C11.13 7.1 10.27 7.55 10.27 8.6Z" fill="#FFFFFF" fill-opacity="1.000000" fill-rule="evenodd"/>
</svg>
